HIERARCHY
ROOT root
{
	OFFSET	0	13.1	24.9
	CHANNELS 6  Xposition Yposition Zposition Xrotation Yrotation Zrotation
	JOINT spine_1
	{
		OFFSET	0	9.99999	0
		CHANNELS 3  Xrotation Yrotation Zrotation
		JOINT spine_2
		{
			OFFSET	0	112	-10
			CHANNELS 3  Xrotation Yrotation Zrotation
			JOINT spine_3
			{
				OFFSET	0	206.5	19.3
				CHANNELS 3  Xrotation Yrotation Zrotation
				JOINT spine_4
				{
					OFFSET	0	110.4	14.6
					CHANNELS 3  Xrotation Yrotation Zrotation
					JOINT neck_1
					{
						OFFSET	0	71.8	-50.3
						CHANNELS 3  Xrotation Yrotation Zrotation
						JOINT neck_2
						{
							OFFSET	0	86.2	-25.8
							CHANNELS 3  Xrotation Yrotation Zrotation
							JOINT head_ee
							{
								OFFSET	0	179.8	-8.7
								CHANNELS 3  Xrotation Yrotation Zrotation
								End Site
								{
									OFFSET	1	0	0
								}
							}
						}
					}
					JOINT left_clavicle
					{
						OFFSET	-43.2	22.4	-70.8
						CHANNELS 3  Xrotation Yrotation Zrotation
						JOINT left_shoulder
						{
							OFFSET	-93.9	-5.79999	48.7
							CHANNELS 3  Xrotation Yrotation Zrotation
							JOINT left_elbow
							{
								OFFSET	-291.4	-30.8	15.2
								CHANNELS 3  Xrotation Yrotation Zrotation
								JOINT left_lowarm_twist
								{
									OFFSET	-110.7	-3.89999	13.6
									CHANNELS 3  Xrotation Yrotation Zrotation
									JOINT left_hand
									{
										OFFSET	-110.7	-3.89999	13.6
										CHANNELS 3  Xrotation Yrotation Zrotation
										JOINT left_ee
										{
											OFFSET	-80.8	-5.10001	12.1
											CHANNELS 3  Xrotation Yrotation Zrotation
											End Site
											{
												OFFSET	1	0	0
											}
										}
									}
								}
							}
						}
					}
					JOINT right_clavicle
					{
						OFFSET	43.2	22.4	-70.8
						CHANNELS 3  Xrotation Yrotation Zrotation
						JOINT right_shoulder
						{
							OFFSET	93.9	-5.79999	48.7
							CHANNELS 3  Xrotation Yrotation Zrotation
							JOINT right_elbow
							{
								OFFSET	291.4	-30.8	15.2
								CHANNELS 3  Xrotation Yrotation Zrotation
								JOINT right_lowarm_twist
								{
									OFFSET	110.7	-3.89999	13.6
									CHANNELS 3  Xrotation Yrotation Zrotation
									JOINT right_hand
									{
										OFFSET	110.7	-3.89999	13.6
										CHANNELS 3  Xrotation Yrotation Zrotation
										JOINT right_ee
										{
											OFFSET	80.8	-5.10001	12.1
											CHANNELS 3  Xrotation Yrotation Zrotation
											End Site
											{
												OFFSET	1	0	0
											}
										}
									}
								}
							}
						}
					}
				}
			}
		}
	}
	JOINT left_hip
	{
		OFFSET	-82.8	-127.5	0.300001
		CHANNELS 3  Xrotation Yrotation Zrotation
		JOINT left_knee
		{
			OFFSET	-28.2	-396.7	2.2
			CHANNELS 3  Xrotation Yrotation Zrotation
			JOINT left_ankle
			{
				OFFSET	-11.7	-411.3	35.4
				CHANNELS 3  Xrotation Yrotation Zrotation
				JOINT left_toes
				{
					OFFSET	0	-60	-88.6
					CHANNELS 3  Xrotation Yrotation Zrotation
					JOINT left_foot_ee
					{
						OFFSET	-22.5	-16.5	-42.2
						CHANNELS 3  Xrotation Yrotation Zrotation
						End Site
						{
							OFFSET	1	0	0
						}
					}
				}
			}
		}
	}
	JOINT right_hip
	{
		OFFSET	82.8	-127.5	0.300001
		CHANNELS 3  Xrotation Yrotation Zrotation
		JOINT right_knee
		{
			OFFSET	28.2	-396.7	2.2
			CHANNELS 3  Xrotation Yrotation Zrotation
			JOINT right_ankle
			{
				OFFSET	11.7	-411.3	35.4
				CHANNELS 3  Xrotation Yrotation Zrotation
				JOINT right_toes
				{
					OFFSET	0	-60	-88.6
					CHANNELS 3  Xrotation Yrotation Zrotation
					JOINT right_foot_ee
					{
						OFFSET	22.5	-16.5	-42.2
						CHANNELS 3  Xrotation Yrotation Zrotation
						End Site
						{
							OFFSET	1	0	0
						}
					}
				}
			}
		}
	}
}
MOTION
Frames: 5
Frame Time: 0.02
684.104 704.896 -567.124 164.532 -83.7253 168.494 -2.53764 0.485937 1.678 -2.53616 0.378192 1.70551 -2.52272 -0.0655753 1.7457 -2.52691 0.210906 1.73415 -4.65613 -1.5153 -12.654 -4.16272 6.84315 -13.2532 -0.0 0.0 -0.0 -0.272646 21.0692 2.05923 -29.3906 -48.8334 61.9048 0.264786 -7.47284 0.017292 -74.6541 -7.14068 5.31972 0.831405 1.58184 6.20535 -0.0 0.0 -0.0 6.88258 26.7254 -11.8948 15.5156 16.1181 -50.7298 3.94569 62.8871 -2.41317 0.323825 -0.0112973 0.0398138 -4.12419 -3.19782 26.9638 0.0 0.0 0.0 30.6869 25.2345 -9.69855 5.38526 -0.25892 -0.785326 12.0532 6.1936 -1.70136 -12.4792 0.0 0.0 -0.0 0.0 -0.0 -15.0031 22.4644 -4.88694 -14.9073 -0.321527 -2.25867 27.5005 -10.5609 3.62454 5.83661 -0.0 -0.0 0.0 0.0 0.0 
708.709 706.337 -580.36 173.654 -82.5693 177.179 -2.48226 0.697139 1.58021 -2.48107 0.595187 1.62135 -2.4621 0.167573 1.71897 -2.46595 0.436911 1.67096 -3.91755 -1.72492 -12.1743 -3.45878 6.23188 -12.8665 -0.0 0.0 -0.0 -0.0612874 21.1501 2.37206 -29.0793 -48.8955 62.1479 0.276948 -7.81193 0.0189094 -74.3381 -7.1003 5.32007 0.906106 1.17357 6.54019 -0.0 0.0 -0.0 7.17349 27.759 -12.4211 15.4021 16.119 -50.2818 3.76843 61.8062 -2.25616 0.18129 -0.00635251 0.0222817 -4.14876 -4.01411 26.6751 0.0 0.0 0.0 31.1074 25.092 -8.52103 2.25735 -0.0995179 -0.332065 10.8674 5.84716 -1.54094 -12.1937 0.0 0.0 -0.0 0.0 -0.0 -14.9161 23.5189 -5.7756 -15.5641 -0.322088 -2.35943 27.6261 -12.438 3.64926 5.88886 -0.0 -0.0 0.0 0.0 0.0 
730.228 708.494 -583.819 174.335 -81.8042 177.934 -2.40362 0.769501 1.43856 -2.40272 0.676413 1.4846 -2.38337 0.282868 1.6067 -2.38658 0.533036 1.54188 -3.32121 -1.89286 -11.8174 -2.88811 5.75844 -12.5805 -0.0 0.0 -0.0 0.183209 20.9837 2.70523 -28.0924 -49.1398 62.4512 0.287232 -8.09823 0.0203327 -74.117 -7.07204 5.32019 0.956815 0.894833 6.76738 -0.0 0.0 -0.0 7.56163 28.4412 -13.1964 14.7854 15.9586 -50.2044 3.61371 60.7959 -2.12044 0.102327 -0.00359426 0.0125741 -4.16101 -4.61014 26.4186 0.0 0.0 0.0 31.3955 24.9951 -7.7077 -0.431265 0.0175179 0.0638637 9.95382 5.61002 -1.41619 -12.0152 0.0 0.0 -0.0 0.0 -0.0 -14.9311 24.278 -6.2979 -16.0436 -0.321768 -2.43301 27.718 -13.7879 3.66973 5.91585 -0.0 -0.0 0.0 0.0 0.0 
761.846 704.032 -595.379 170.204 -83.1353 173.718 -2.30191 0.705645 1.36284 -2.30108 0.617503 1.40497 -2.28435 0.248383 1.51443 -2.28722 0.484416 1.45622 -2.00917 -2.08067 -9.53369 -1.73037 3.82651 -10.3201 -0.0 0.0 -0.0 0.343713 21.0265 2.94062 -28.0125 -49.1912 61.5561 0.294526 -8.30104 0.0213729 -74.6729 -7.14308 5.31969 0.962557 1.14921 6.90888 -0.0 0.0 -0.0 7.76164 27.832 -13.7038 12.7247 13.7242 -48.9919 3.49087 59.9455 -2.01366 0.855769 -0.0293652 0.10535 -4.23524 -5.95816 26.17 0.0 0.0 0.0 32.4006 23.7413 -9.80003 -6.88598 0.221659 1.03291 7.285 7.35832 -1.04491 -11.0656 0.0 0.0 -0.0 0.0 -0.0 -18.0528 26.8418 -2.63306 -15.5799 -0.322087 -2.36185 26.8525 -18.6207 3.62319 6.60546 -0.0 -0.0 0.0 0.0 0.0 
786.975 694.688 -599.676 175.243 -83.0009 178.724 -2.00699 0.770136 1.23838 -2.0064 0.689781 1.28486 -1.98965 0.35558 1.41428 -1.99198 0.574456 1.34039 -1.07933 -2.17163 -7.96655 -0.888488 2.53043 -8.73444 -0.0 0.0 -0.0 0.610708 21.0618 3.32804 -27.5399 -49.3185 61.0511 0.312957 -8.8126 0.0241154 -75.0469 -7.19087 5.31896 0.964372 1.31736 6.98902 -0.0 0.0 -0.0 7.98724 28.0319 -14.1777 11.5185 12.5906 -48.6245 3.41632 59.4071 -1.9493 1.38249 -0.046655 0.170403 -4.28004 -6.89307 25.9372 0.0 0.0 0.0 32.4526 23.2137 -9.39676 -11.7358 0.302571 1.77248 5.27234 8.57962 -0.760849 -10.4219 0.0 0.0 -0.0 0.0 -0.0 -19.884 28.4936 -1.36937 -15.2844 -0.32199 -2.31653 26.2154 -21.9702 3.59948 7.08474 -0.0 -0.0 0.0 0.0 0.0 
